Coordinates
version=1
nRows=21
nColumns=27
inDegrees=yes

Units are S.I. units (second, meters, Newtons, ...)
If the header above contains a line with 'inDegrees', this indicates whether rotational values are in degrees (yes) or radians (no).

endheader
time	pelvis_rotation	pelvis_tilt	pelvis_list	pelvis_tx	pelvis_ty	pelvis_tz	hip_flexion_r	hip_adduction_r	hip_rotation_r	knee_angle_r	knee_rotation_r	knee_adduction_r	knee_angle_r_beta	ankle_angle_r	subtalar_angle_r	mtp_angle_r	hip_flexion_l	hip_adduction_l	hip_rotation_l	knee_angle_l	knee_rotation_l	knee_adduction_l	knee_angle_l_beta	ankle_angle_l	subtalar_angle_l	mtp_angle_l
     12.05500000	      8.07943746	    -46.53766533	      5.75700047	     -0.13991857	      0.75490465	     -1.19410920	    102.68442654	    -15.66215973	     -2.18256361	     69.80384927	      0.00000000	      4.62892659	      1.21830700	     11.98058409	      0.00000000	      0.00000000	    100.87178229	     -6.94294857	     -7.61143572	     64.79241040	      0.00000000	     -9.04267131	      1.13084089	      9.09305337	      0.00000000	      0.00000000
     12.06000000	      8.41491409	    -46.50679719	      5.82598967	     -0.13968382	      0.75459702	     -1.19398129	    102.68285177	    -16.03157046	     -2.43956843	     69.95441058	      0.00000000	      4.88636169	      1.22093479	     12.06372471	      0.00000000	      0.00000000	    100.93412138	     -6.73419647	     -7.55868714	     64.88490255	      0.00000000	     -9.39750888	      1.13245518	      9.06597000	      0.00000000	      0.00000000
     12.06500000	      8.11623864	    -46.53458000	      5.70173137	     -0.13977187	      0.75431400	     -1.19355443	    102.74830149	    -15.69629219	     -2.28584531	     69.98156100	      0.00000000	      4.80139905	      1.22140866	     12.04156553	      0.00000000	      0.00000000	    100.99026290	     -7.03907273	     -7.64862999	     64.98658611	      0.00000000	     -9.42050051	      1.13422990	      9.08915295	      0.00000000	      0.00000000
     12.07000000	      8.34404683	    -46.55187147	      5.83571768	     -0.13978549	      0.75397382	     -1.19353385	    102.85448058	    -15.87440533	     -2.26993516	     70.10060539	      0.00000000	      4.79595905	      1.22348637	     12.07905562	      0.00000000	      0.00000000	    101.06378675	     -6.86351253	     -7.61533744	     65.02237924	      0.00000000	     -9.41044722	      1.13485461	      9.10234578	      0.00000000	      0.00000000
     12.07500000	      8.51883080	    -46.59710278	      5.91005947	     -0.13980086	      0.75366466	     -1.19345665	    102.96149063	    -16.00710809	     -2.28225990	     70.20312968	      0.00000000	      4.83013132	      1.22527576	     12.12786670	      0.00000000	      0.00000000	    101.17361830	     -6.73640575	     -7.56155392	     65.06968138	      0.00000000	     -9.40717661	      1.13568018	      9.10155638	      0.00000000	      0.00000000
     12.08000000	      8.63995725	    -46.61095027	      5.90630548	     -0.13975759	      0.75337471	     -1.19331507	    103.00526627	    -16.09483765	     -2.33177511	     70.29314205	      0.00000000	      4.79996830	      1.22684677	     12.16714233	      0.00000000	      0.00000000	    101.25068194	     -6.64898771	     -7.47184178	     65.12193270	      0.00000000	     -9.40878184	      1.13659214	      9.11793339	      0.00000000	      0.00000000
     12.08500000	      8.46741843	    -46.62404725	      5.86905221	     -0.13980040	      0.75310996	     -1.19303947	    103.07695380	    -15.87221170	     -2.16732332	     70.34145653	      0.00000000	      4.70180430	      1.22769002	     12.14448786	      0.00000000	      0.00000000	    101.28597876	     -6.84540494	     -7.57435492	     65.19933574	      0.00000000	     -9.42426872	      1.13794308	      9.14812483	      0.00000000	      0.00000000
     12.09000000	      8.69661815	    -46.65566189	      5.99119694	     -0.13978165	      0.75281617	     -1.19302582	    103.17828322	    -16.04582812	     -2.15803354	     70.44844814	      0.00000000	      4.72929554	      1.22955737	     12.19454906	      0.00000000	      0.00000000	    101.36935125	     -6.66852403	     -7.53101043	     65.22925324	      0.00000000	     -9.42143357	      1.13846524	      9.15869621	      0.00000000	      0.00000000
     12.09500000	      8.75694576	    -46.68475757	      6.03899738	     -0.13992389	      0.75243535	     -1.19303452	    103.28905172	    -16.01626311	     -2.00586463	     70.52765520	      0.00000000	      4.51941446	      1.23093980	     12.18129794	      0.00000000	      0.00000000	    101.46747227	     -6.57776958	     -7.42358337	     65.27325950	      0.00000000	     -9.05502387	      1.13923329	      9.09233139	      0.00000000	      0.00000000
     12.10000000	      8.64520321	    -46.67898917	      5.97834921	     -0.13974821	      0.75227176	     -1.19264261	    103.29463237	    -15.90160616	     -2.01006346	     70.58367719	      0.00000000	      4.60357448	      1.23191757	     12.23771367	      0.00000000	      0.00000000	    101.46777324	     -6.78646542	     -7.57695100	     65.35494794	      0.00000000	     -9.43802730	      1.14065902	      9.19457147	      0.00000000	      0.00000000
     12.10500000	      9.04740544	    -46.71014010	      6.12135187	     -0.13963842	      0.75199688	     -1.19274731	    103.37661929	    -16.25177419	     -2.10852820	     70.71177508	      0.00000000	      4.63610937	      1.23415330	     12.32986921	      0.00000000	      0.00000000	    101.57644746	     -6.44614767	     -7.43451597	     65.37233937	      0.00000000	     -9.43433150	      1.14096256	      9.19113918	      0.00000000	      0.00000000
     12.11000000	      8.85920519	    -46.71487096	      6.03808420	     -0.13973968	      0.75167756	     -1.19260020	    103.42583728	    -15.99576895	     -1.91619366	     70.74354976	      0.00000000	      4.39993721	      1.23470787	     12.26576442	      0.00000000	      0.00000000	    101.62930978	     -6.58360414	     -7.39200770	     65.44638080	      0.00000000	     -9.08030461	      1.14225483	      9.11481407	      0.00000000	      0.00000000
     12.11500000	      9.07961862	    -46.70102629	      6.19691109	     -0.13956081	      0.75150431	     -1.19251416	    103.47815016	    -16.18086493	     -1.92846481	     70.85491778	      0.00000000	      4.57280347	      1.23665161	     12.37098577	      0.00000000	      0.00000000	    101.62239090	     -6.48593565	     -7.50932794	     65.46896378	      0.00000000	     -9.44687899	      1.14264898	      9.22682097	      0.00000000	      0.00000000
     12.12000000	      9.14112303	    -46.75799854	      6.26655276	     -0.13957797	      0.75121378	     -1.19245483	    103.60849740	    -16.17764391	     -1.82905297	     70.93777496	      0.00000000	      4.54380861	      1.23809774	     12.38681265	      0.00000000	      0.00000000	    101.72062546	     -6.46103146	     -7.52616426	     65.51926167	      0.00000000	     -9.45160314	      1.14352684	      9.21561123	      0.00000000	      0.00000000
     12.12500000	      9.46733443	    -46.60751623	      5.81035290	     -0.13907385	      0.75115124	     -1.19239470	    103.18190701	    -16.58558727	     -2.50359016	     70.95470886	      0.00000000	      4.42317154	      1.23839329	     12.48696398	      0.00000000	      0.00000000	    101.75455825	     -6.02994747	     -6.76437572	     65.58228946	      0.00000000	     -9.08334230	      1.14462688	      9.11308001	      0.00000000	      0.00000000
     12.13000000	      9.29749060	    -46.74700533	      6.23786790	     -0.13931266	      0.75081866	     -1.19229786	    103.62188681	    -16.27492952	     -1.87754336	     71.06782878	      0.00000000	      4.46457147	      1.24036760	     12.45531665	      0.00000000	      0.00000000	    101.79894418	     -6.35374779	     -7.40423433	     65.61380463	      0.00000000	     -9.44628666	      1.14517693	      9.24356465	      0.00000000	      0.00000000
     12.13500000	      9.22379601	    -46.73820768	      6.30966636	     -0.13939851	      0.75052563	     -1.19230361	    103.69655511	    -16.09707376	     -1.59440901	     71.11354298	      0.00000000	      4.26405688	      1.24116547	     12.44898930	      0.00000000	      0.00000000	    101.81120106	     -6.40462795	     -7.44870976	     65.65644338	      0.00000000	     -9.10576385	      1.14592111	      9.19681366	      0.00000000	      0.00000000
     12.14000000	      9.28067236	    -46.77234203	      6.25403598	     -0.13919349	      0.75033183	     -1.19212855	    103.72578048	    -16.16633858	     -1.71831529	     71.19013274	      0.00000000	      4.39081577	      1.24250221	     12.52573753	      0.00000000	      0.00000000	    101.89161409	     -6.43087161	     -7.45644163	     65.73888377	      0.00000000	     -9.46953402	      1.14735997	      9.27580554	      0.00000000	      0.00000000
     12.14500000	      9.52118996	    -46.79431878	      6.51960618	     -0.13928034	      0.74998303	     -1.19244829	    103.89758513	    -16.28832204	     -1.46733058	     71.30433197	      0.00000000	      4.24761200	      1.24449536	     12.51501361	      0.00000000	      0.00000000	    101.94938395	     -6.18796044	     -7.44655431	     65.74037470	      0.00000000	     -9.10928232	      1.14738599	      9.22005553	      0.00000000	      0.00000000
     12.15000000	      9.42385306	    -46.80681505	      6.43393682	     -0.13907773	      0.74987495	     -1.19220615	    103.89537038	    -16.20456779	     -1.51611767	     71.33999639	      0.00000000	      4.33898853	      1.24511783	     12.55908391	      0.00000000	      0.00000000	    101.97508585	     -6.35510107	     -7.53737560	     65.82547354	      0.00000000	     -9.47532794	      1.14887124	      9.31914187	      0.00000000	      0.00000000
     12.15500000	      9.69604102	    -46.79224655	      6.54681838	     -0.13895746	      0.74971756	     -1.19237835	    103.91410029	    -16.45994758	     -1.58136975	     71.41468700	      0.00000000	      4.39588774	      1.24642142	     12.63423574	      0.00000000	      0.00000000	    101.99872165	     -6.12693821	     -7.48905726	     65.82069711	      0.00000000	     -9.49528513	      1.14878788	      9.32725801	      0.00000000	      0.00000000
